<svg width="84" height="20" viewBox="0 0 84 20" fill="none" xmlns="http://www.w3.org/2000/svg">
<g clip-path="url(#clip0)">
<path fill-rule="evenodd" clip-rule="evenodd" d="M7.32971 4.70764H13.0697C16.1515 4.70764 17.3117 6.24095 17.1324 8.4965C16.8375 12.2155 14.5484 14.273 11.5139 14.273H9.98189C9.56554 14.273 9.28551 14.5438 9.1729 15.2777L8.51504 19.5413C8.47207 19.8179 8.32391 19.981 8.10166 20H4.50269C4.16339 20 4.04338 19.7451 4.13228 19.1933L6.33107 5.5158C6.41849 4.96829 6.72223 4.70764 7.32971 4.70764Z" fill="#FF8500"/>
<path fill-rule="evenodd" clip-rule="evenodd" d="M32.25 4.45434C34.1866 4.45434 35.9735 5.48674 35.729 8.05972C35.4386 11.1103 33.7658 12.8096 31.1343 12.8169H28.8392C28.5088 12.8169 28.3488 13.0819 28.2629 13.6251L27.8199 16.4019C27.7532 16.8213 27.5339 17.0281 27.2109 17.0281H25.0728C24.7321 17.0281 24.6135 16.814 24.6891 16.3349L26.4567 5.20425C26.5441 4.65674 26.756 4.45288 27.1338 4.45288H32.25V4.45434ZM28.7666 10.4128H30.5076C31.5966 10.3721 32.3197 9.63089 32.3923 8.29416C32.4367 7.46853 31.8692 6.87734 30.9669 6.88171L29.3267 6.88899L28.7666 10.4128ZM41.5401 16.1762C41.7356 16.0015 41.9342 15.9112 41.906 16.1267L41.8364 16.6422C41.8008 16.9116 41.909 17.0543 42.1638 17.0543H44.0633C44.3834 17.0543 44.539 16.9276 44.6175 16.4412L45.788 9.22172C45.8473 8.85914 45.7569 8.68149 45.4768 8.68149H43.3892C43.201 8.68149 43.1091 8.78488 43.0603 9.06737L42.9832 9.51149C42.9432 9.74301 42.835 9.78379 42.7343 9.5508C42.3802 8.72663 41.4764 8.35678 40.2081 8.38153C37.2788 8.44123 35.3037 10.6269 35.0919 13.4285C34.9289 15.5952 36.5083 17.2974 38.5916 17.2974C40.1029 17.2974 40.78 16.8548 41.5401 16.1762ZM39.9517 15.0666C38.6908 15.0666 37.8122 14.0779 37.9944 12.8664C38.1782 11.6549 39.3561 10.6662 40.617 10.6662C41.8779 10.6662 42.7565 11.6549 42.5743 12.8664C42.3905 14.0794 41.2126 15.0666 39.9517 15.0666ZM49.5085 8.6582H47.5897C47.1926 8.6582 47.0311 8.9436 47.1571 9.30763L49.5485 16.1893L47.1926 19.4627C46.9956 19.7365 47.1482 19.9855 47.4252 19.9855H49.59C49.913 19.9855 50.07 19.9039 50.233 19.6753L57.588 9.30763C57.8147 8.98874 57.708 8.65383 57.3361 8.65383L55.2884 8.65237C54.9373 8.65237 54.7965 8.78925 54.595 9.07611L51.528 13.4503L50.1634 9.06883C50.0774 8.79798 49.8774 8.6582 49.5085 8.6582Z" fill="white" fill-opacity="0.8"/>
<path fill-rule="evenodd" clip-rule="evenodd" d="M65.2405 4.45434C67.177 4.45434 68.9639 5.48674 68.7195 8.05972C68.429 11.1103 66.7563 12.8096 64.1248 12.8169H61.8297C61.4993 12.8169 61.3393 13.0819 61.2533 13.6251L60.8103 16.4019C60.7437 16.8213 60.5244 17.0281 60.2014 17.0281H58.0633C57.7225 17.0281 57.604 16.814 57.6796 16.3349L59.4472 5.20425C59.5346 4.65674 59.7465 4.45288 60.1243 4.45288H65.2405V4.45434ZM61.7586 10.4128H63.4996C64.5886 10.3721 65.3116 9.63089 65.3857 8.29416C65.4302 7.46853 64.8627 6.87734 63.9603 6.88171L62.3201 6.88899L61.7586 10.4128ZM74.532 16.1762C74.7276 16.0015 74.9261 15.9112 74.898 16.1267L74.8284 16.6422C74.7928 16.9116 74.901 17.0543 75.1558 17.0543H77.0553C77.3753 17.0543 77.5309 16.9276 77.6094 16.4412L78.78 9.22172C78.8392 8.85914 78.7488 8.68149 78.4688 8.68149H76.3811C76.193 8.68149 76.1011 8.78488 76.0522 9.06737L75.9752 9.51149C75.9352 9.74302 75.827 9.78379 75.7262 9.55081C75.3721 8.72663 74.4683 8.35678 73.2 8.38153C70.2708 8.44123 68.2957 10.6269 68.0838 13.4285C67.9208 15.5952 69.5003 17.2974 71.5835 17.2974C73.0948 17.2974 73.7704 16.8548 74.532 16.1762ZM72.9422 15.0666C71.6813 15.0666 70.8027 14.0779 70.9849 12.8664C71.1686 11.6549 72.3466 10.6662 73.6075 10.6662C74.8684 10.6662 75.747 11.6549 75.5647 12.8664C75.3825 14.0794 74.2031 15.0666 72.9422 15.0666ZM81.7033 17.0674H79.5104C79.3356 17.0674 79.2156 16.9334 79.2422 16.7689L81.1699 4.77614C81.1966 4.6116 81.361 4.47764 81.5344 4.47764H83.7272C83.9021 4.47764 84.0221 4.6116 83.9954 4.77614L82.0678 16.7689C82.0426 16.9334 81.8781 17.0674 81.7033 17.0674Z" fill="#FF8500"/>
<path fill-rule="evenodd" clip-rule="evenodd" d="M3.74118 0H9.48707C11.1051 0 13.0253 0.0509647 14.3084 1.16491C15.1663 1.90899 15.6167 3.09283 15.513 4.36403C15.1604 8.67565 12.5363 11.0914 9.01591 11.0914H6.18296C5.69994 11.0914 5.38138 11.4059 5.24507 12.2563L4.45386 17.1999C4.402 17.5202 4.26124 17.7095 4.00343 17.7328H0.463738C0.071097 17.7328 -0.0681794 17.4372 0.0340555 16.798L2.58252 0.93775C2.68475 0.302876 3.03887 0 3.74118 0Z" fill="white" fill-opacity="0.8"/>
<path fill-rule="evenodd" clip-rule="evenodd" d="M5.32666 11.7582L6.32975 5.51579C6.41717 4.96828 6.72239 4.70618 7.32987 4.70618H13.0698C14.0196 4.70618 14.7886 4.85179 15.3901 5.12117C14.8138 8.95954 12.2875 11.0913 8.98045 11.0913H6.14602C5.77264 11.0913 5.49409 11.2792 5.32666 11.7582Z" fill="black"/>
</g>
<defs>
<clipPath id="clip0">
<rect width="84" height="20" fill="white"/>
</clipPath>
</defs>
</svg>
