<svg width="33" height="33" viewBox="0 0 33 33" fill="none" xmlns="http://www.w3.org/2000/svg">
<path d="M33 16.5C33 7.38064 25.6204 0 16.5 0C7.38064 0 0 7.37963 0 16.5C0 25.5385 7.31795 33 16.5 33C25.6443 33 33 25.5801 33 16.5ZM16.5 1.93359C24.532 1.93359 31.0664 8.46803 31.0664 16.5C31.0664 19.4382 30.1925 22.2623 28.5719 24.6543C22.0641 17.6541 10.9477 17.6415 4.42813 24.6543C2.80749 22.2623 1.93359 19.4382 1.93359 16.5C1.93359 8.46803 8.46803 1.93359 16.5 1.93359ZM5.63411 26.2002C11.4203 19.7101 21.5812 19.7116 27.3656 26.2002C21.5601 32.6954 11.4422 32.6974 5.63411 26.2002Z" fill="white"/>
<path d="M16.5 17.4668C19.6985 17.4668 22.3008 14.8645 22.3008 11.666V9.73242C22.3008 6.53394 19.6985 3.93164 16.5 3.93164C13.3015 3.93164 10.6992 6.53394 10.6992 9.73242V11.666C10.6992 14.8645 13.3015 17.4668 16.5 17.4668ZM12.6328 9.73242C12.6328 7.59993 14.3675 5.86523 16.5 5.86523C18.6325 5.86523 20.3672 7.59993 20.3672 9.73242V11.666C20.3672 13.7985 18.6325 15.5332 16.5 15.5332C14.3675 15.5332 12.6328 13.7985 12.6328 11.666V9.73242Z" fill="white"/>
</svg>
