<svg width="13" height="13" viewBox="0 0 13 13" fill="none" xmlns="http://www.w3.org/2000/svg">
<g clip-path="url(#clip0)">
<path d="M9.54009 8.39161C10.1798 7.51803 10.5625 6.44499 10.5625 5.28173C10.5625 2.36975 8.19319 0.000488281 5.28121 0.000488281C2.36924 0.000488281 0 2.36975 0 5.28173C0 8.1937 2.36926 10.563 5.28124 10.563C6.4445 10.563 7.51764 10.1803 8.39123 9.54056L11.8511 13.0004L13 11.8515C13 11.8515 9.54009 8.39161 9.54009 8.39161ZM5.28124 8.93796C3.26507 8.93796 1.62501 7.2979 1.62501 5.28173C1.62501 3.26555 3.26507 1.62549 5.28124 1.62549C7.29741 1.62549 8.93747 3.26555 8.93747 5.28173C8.93747 7.2979 7.29739 8.93796 5.28124 8.93796Z" fill="#201F1F" fill-opacity="0.7"/>
</g>
<defs>
<clipPath id="clip0">
<rect width="13" height="13" fill="white"/>
</clipPath>
</defs>
</svg>
