<svg xmlns="http://www.w3.org/2000/svg" width="226" height="34" fill="none" viewBox="0 0 226 34">
  <path fill="#fff" d="M161.422 5.812l.058.359a5.695 5.695 0 00-3.95-3.872l-.04-.01c-3.573-.93-17.953-.93-17.953-.93s-14.344-.019-17.953.93c-1.937.54-3.434 1.995-3.979 3.843l-.009.039c-1.335 6.693-1.345 14.736.059 21.903l-.059-.363a5.693 5.693 0 003.949 3.872l.04.009c3.57.933 17.954.933 17.954.933s14.341 0 17.953-.933c1.938-.54 3.436-1.995 3.98-3.843l.01-.038c.607-3.113.955-6.696.955-10.355 0-.134 0-.27-.002-.405.002-.125.002-.273.002-.422 0-3.661-.348-7.243-1.015-10.717zm-26.473 17.823v-13.37l11.968 6.695-11.968 6.675zM225.34 4.73a18.118 18.118 0 01-4.847 1.275c1.744-1 3.075-2.57 3.7-4.463a17.23 17.23 0 01-5.333 1.955c-1.543-1.578-3.743-2.555-6.143-2.555-4.657 0-8.406 3.628-8.406 8.076 0 .64.057 1.255.195 1.841-6.992-.327-13.179-3.544-17.336-8.445a7.888 7.888 0 00-1.151 4.08c0 2.797 1.5 5.276 3.736 6.711a8.573 8.573 0 01-3.8-.994v.088c0 3.924 2.915 7.183 6.738 7.934-.684.18-1.43.266-2.205.266-.538 0-1.082-.03-1.592-.138 1.09 3.197 4.182 5.548 7.859 5.624-2.862 2.15-6.495 3.444-10.428 3.444-.69 0-1.351-.03-2.013-.11 3.726 2.306 8.141 3.623 12.903 3.623 15.476 0 23.938-12.308 23.938-22.976 0-.357-.013-.702-.031-1.044a16.437 16.437 0 004.216-4.192z"/>
  <path fill="#fff" fill-rule="evenodd" d="M84.04.1L67.97 0c-5.23-.032-9.513 4.026-9.547 9.046l-.103 15.426c-.034 5.02 4.194 9.131 9.424 9.163l16.07.1c5.23.032 9.513-4.026 9.546-9.046l.103-15.426C93.498 4.243 89.27.132 84.04.099zm-8.21 25.964c-5.283-.032-9.553-4.184-9.52-9.256.035-5.071 4.36-9.17 9.643-9.138 5.283.033 9.554 4.185 9.52 9.256-.034 5.072-4.36 9.17-9.643 9.138zM85.75 9.9c-1.561-.01-2.823-1.236-2.813-2.735.01-1.499 1.288-2.71 2.85-2.7 1.56.01 2.823 1.236 2.813 2.735-.01 1.498-1.289 2.71-2.85 2.7zm-9.905-.258c4.15-.025 7.548 3.195 7.575 7.179.026 3.984-3.329 7.246-7.479 7.271-4.15.026-7.548-3.194-7.575-7.178-.026-3.984 3.328-7.246 7.479-7.272zM86.57 7.246c-.002-.411-.353-.744-.782-.741-.428.003-.775.34-.772.75.003.412.354.744.782.741.429-.002.775-.339.772-.75z" clip-rule="evenodd"/>
  <path fill="#fff" d="M32.296.018H1.886C.843.02 0 .83 0 1.83V31.02c0 1 .845 1.81 1.887 1.81H18.26V20.14h-4.44v-4.966h4.44V11.52c0-4.239 2.696-6.546 6.635-6.546 1.887 0 3.508.135 3.98.195V9.6H26.16c-2.143 0-2.558.978-2.558 2.413v3.163h5.124l-.667 4.967H23.6V32.83h8.695c1.042 0 1.887-.81 1.887-1.81V1.827c0-1-.845-1.81-1.887-1.81z"/>
</svg>
