<svg xmlns="http://www.w3.org/2000/svg" width="13" height="13" fill="none" viewBox="0 0 13 13">
  <g clip-path="url(#clip0)">
    <path fill="#201F1F" fill-opacity=".7" d="M9.54 8.392a5.246 5.246 0 001.023-3.11A5.287 5.287 0 005.28 0 5.287 5.287 0 000 5.282a5.287 5.287 0 005.281 5.281 5.246 5.246 0 003.11-1.022l3.46 3.46L13 11.85l-3.46-3.46zm-4.259.546a3.66 3.66 0 01-3.656-3.656 3.66 3.66 0 013.656-3.657 3.66 3.66 0 013.656 3.657 3.66 3.66 0 01-3.656 3.656z"/>
  </g>
  <defs>
    <clipPath id="clip0">
      <path fill="#fff" d="M0 0h13v13H0z"/>
    </clipPath>
  </defs>
</svg>
