<svg width="105" height="24" viewBox="0 0 105 24" fill="none" xmlns="http://www.w3.org/2000/svg">
<path d="M16.144 19.128V23H0.368V0.279999H15.856V4.152H4.784V9.624H14.352V13.208H4.784V19.128H16.144Z" fill="#FF8500"/>
<path d="M19.0748 16.152V12.28H28.7708V16.152H19.0748ZM31.5858 11.48C31.5858 10.0933 31.8311 8.728 32.3218 7.384C32.8338 6.01867 33.5698 4.80267 34.5298 3.736C35.4898 2.66933 36.6631 1.80533 38.0498 1.144C39.4364 0.482665 41.0151 0.151999 42.7858 0.151999C44.8764 0.151999 46.6791 0.610666 48.1938 1.528C49.7298 2.44533 50.8711 3.64 51.6178 5.112L48.2257 7.448C47.9271 6.808 47.5644 6.27467 47.1378 5.848C46.7111 5.4 46.2524 5.048 45.7618 4.792C45.2711 4.536 44.7591 4.35467 44.2258 4.248C43.6924 4.12 43.1698 4.056 42.6578 4.056C41.5484 4.056 40.5778 4.28 39.7458 4.728C38.9351 5.176 38.2524 5.76267 37.6978 6.488C37.1644 7.192 36.7591 8.00267 36.4818 8.92C36.2044 9.816 36.0658 10.712 36.0658 11.608C36.0658 12.6107 36.2258 13.5813 36.5458 14.52C36.8658 15.4373 37.3138 16.248 37.8898 16.952C38.4871 17.656 39.1911 18.2213 40.0017 18.648C40.8338 19.0747 41.7404 19.288 42.7218 19.288C43.2338 19.288 43.7671 19.224 44.3218 19.096C44.8764 18.968 45.3991 18.7653 45.8898 18.488C46.4018 18.2107 46.8711 17.8587 47.2978 17.432C47.7244 16.984 48.0658 16.4507 48.3218 15.832L51.9378 17.912C51.5751 18.7653 51.0524 19.5227 50.3698 20.184C49.7084 20.824 48.9511 21.368 48.0978 21.816C47.2658 22.264 46.3698 22.6053 45.4098 22.84C44.4498 23.0747 43.5111 23.192 42.5938 23.192C40.9724 23.192 39.4898 22.8507 38.1458 22.168C36.8018 21.4853 35.6391 20.6 34.6578 19.512C33.6978 18.4027 32.9404 17.1547 32.3858 15.768C31.8524 14.36 31.5858 12.9307 31.5858 11.48ZM54.8993 23V0.279999H59.3153V23H54.8993ZM68.4715 8.44V23H64.0555V0.279999H67.4795L79.3195 15.192V0.311998H83.7355V23H80.1515L68.4715 8.44ZM104.238 19.128V23H88.4618V0.279999H103.95V4.152H92.8778V9.624H102.446V13.208H92.8778V19.128H104.238Z" fill="white"/>
</svg>