<svg width="12" height="14" viewBox="0 0 12 14" fill="none" xmlns="http://www.w3.org/2000/svg">
<path fill-rule="evenodd" clip-rule="evenodd" d="M1.2094 0.606745L11.612 6.46677L11.6148 6.46879C11.7338 6.53729 11.8319 6.63394 11.8994 6.74921C11.9669 6.86449 12.0016 6.99442 11.9999 7.12622C11.9983 7.25801 11.9604 7.38713 11.89 7.50086C11.8196 7.61459 11.7191 7.70901 11.5985 7.77483L1.19732 13.4L1.20087 13.398C1.07926 13.4647 0.941235 13.4999 0.800689 13.5C0.660143 13.5001 0.522039 13.4652 0.400287 13.3988C0.278535 13.3323 0.177432 13.2367 0.107159 13.1215C0.036887 13.0063 -7.32584e-05 12.8756 1.29409e-07 12.7426V1.25741C-8.02854e-05 1.1236 0.037318 0.992167 0.108385 0.876491C0.179453 0.760816 0.28165 0.665034 0.404565 0.598905C0.52748 0.532777 0.666721 0.498663 0.808102 0.50004C0.949483 0.501417 1.08795 0.538236 1.2094 0.606745Z" fill="white"/>
</svg>
