<svg width="39" height="39" viewBox="0 0 39 39" fill="none" xmlns="http://www.w3.org/2000/svg">
<g clip-path="url(#clip0)">
<path d="M28.6203 25.1739C30.5394 22.5531 31.6874 19.334 31.6874 15.8442C31.6874 7.10828 24.5796 0.000488281 15.8436 0.000488281C7.10772 0.000488281 0 7.10828 0 15.8442C0 24.5801 7.10779 31.6879 15.8437 31.6879C19.3335 31.6879 22.5529 30.5398 25.1737 28.6207L35.5533 39.0003L39 35.5535C39 35.5534 28.6203 25.1739 28.6203 25.1739ZM15.8437 26.8129C9.7952 26.8129 4.87502 21.8927 4.87502 15.8442C4.87502 9.79569 9.7952 4.87551 15.8437 4.87551C21.8922 4.87551 26.8124 9.79569 26.8124 15.8442C26.8124 21.8927 21.8922 26.8129 15.8437 26.8129Z" fill="white" fill-opacity="0.8"/>
</g>
<defs>
<clipPath id="clip0">
<rect width="39" height="39" fill="white"/>
</clipPath>
</defs>
</svg>
